<?xml version="1.0" standalone="no"?>
<!DOCTYPE svg PUBLIC "-//W3C//DTD SVG 20010904//EN"
 "http://www.w3.org/TR/2001/REC-SVG-20010904/DTD/svg10.dtd">
<svg version="1.0" xmlns="http://www.w3.org/2000/svg"
 width="525.000000pt" height="525.000000pt" viewBox="0 0 525.000000 525.000000"
 preserveAspectRatio="xMidYMid meet">
<metadata>
Created by potrace 1.14, written by Peter Selinger 2001-2017
</metadata>
<g transform="translate(0.000000,525.000000) scale(0.100000,-0.100000)"
fill="#000000" stroke="none">
<path d="M2489 5172 c-14 -25 -43 -78 -119 -217 -228 -419 -397 -867 -543
-1440 -8 -33 -5 183 4 270 18 165 41 304 75 444 36 150 113 394 126 399 4 2 8
9 8 17 0 7 12 39 26 71 35 81 16 57 -38 -46 -106 -204 -208 -481 -263 -715
-16 -66 -43 -160 -61 -210 -45 -125 -62 -196 -85 -353 -11 -75 -21 -137 -23
-139 -6 -7 -24 117 -33 222 -4 55 -7 175 -8 268 0 92 -1 167 -2 167 -4 0 -23
-111 -27 -165 -18 -201 -21 -271 -21 -457 0 -114 -3 -204 -6 -200 -9 10 -44
123 -74 237 -34 126 -76 258 -81 253 -2 -3 0 -18 5 -35 5 -17 14 -73 20 -125
32 -264 83 -498 151 -690 25 -72 30 -102 30 -175 0 -112 -13 -134 -28 -50 -11
59 -65 229 -108 339 -10 26 -27 51 -40 56 l-21 10 18 -81 c49 -207 58 -268 64
-427 l5 -125 -29 61 c-52 106 -71 174 -91 314 l-7 55 -3 -47 c-1 -27 -3 -54
-3 -60 -1 -7 2 -51 6 -98 10 -115 38 -224 83 -327 24 -53 25 -65 18 -133 -4
-41 -7 -78 -6 -82 7 -28 -14 5 -54 85 -58 114 -117 278 -139 382 -9 43 -18 81
-20 85 -2 3 -7 47 -11 96 -3 49 -9 91 -11 94 -7 6 4 -273 12 -325 14 -89 55
-245 89 -338 39 -107 120 -276 140 -292 7 -6 16 -20 20 -32 4 -13 13 -29 19
-35 7 -7 20 -30 30 -51 l17 -38 -37 28 c-46 34 -114 101 -168 166 -22 26 -51
60 -64 75 -53 59 -186 283 -214 362 -3 8 -6 10 -6 3 -1 -18 46 -145 85 -230
61 -132 183 -314 271 -403 84 -86 176 -186 184 -201 7 -15 4 -16 -29 -8 -20 5
-50 12 -67 15 -114 21 -268 68 -329 101 -126 68 -233 241 -273 440 -4 21 -8
40 -8 43 -2 7 -16 91 -19 112 -1 10 -4 20 -7 23 -15 14 14 -234 38 -335 42
-175 142 -318 260 -372 23 -10 45 -23 48 -28 9 -14 84 -46 225 -95 114 -39
273 -97 310 -111 34 -14 -57 -31 -150 -28 -103 2 -264 12 -320 19 -99 12 -126
16 -142 21 -9 3 -25 6 -35 8 -159 31 -346 143 -437 262 -20 26 -36 51 -36 55
0 5 -5 9 -10 9 -6 0 6 -26 26 -58 43 -68 170 -194 222 -220 20 -10 71 -37 112
-59 106 -58 303 -110 480 -128 30 -3 69 -7 85 -10 34 -5 92 -12 185 -21 45 -4
102 -21 182 -55 64 -27 131 -52 148 -55 39 -8 47 -21 18 -29 -13 -4 -54 -25
-91 -47 -37 -21 -75 -41 -85 -43 -9 -2 -46 -16 -82 -30 -181 -73 -201 -79
-300 -79 -80 0 -102 3 -137 22 -52 27 -78 54 -109 112 -20 37 -23 40 -18 15
19 -89 89 -158 190 -187 85 -25 283 -10 354 27 15 8 40 13 56 13 16 0 70 7
119 15 50 9 115 19 145 22 30 4 72 10 93 13 22 4 82 4 135 0 54 -4 147 -10
208 -13 109 -5 153 -10 161 -18 2 -3 -15 -20 -39 -38 -24 -19 -49 -39 -56 -46
-25 -24 -97 -70 -120 -77 -12 -4 -32 -17 -43 -29 -18 -20 -20 -20 -13 -2 7 17
6 18 -8 5 -9 -8 -14 -18 -11 -23 4 -7 -96 -56 -130 -63 -10 -2 -27 -6 -37 -9
-11 -3 -42 -8 -71 -10 -60 -4 -77 -14 -28 -16 165 -7 275 17 434 96 98 49 269
138 350 184 23 13 82 20 103 12 1 -1 -15 -27 -37 -59 -22 -31 -67 -108 -101
-171 -34 -63 -71 -129 -83 -145 -58 -85 -157 -158 -233 -172 -42 -8 -45 -23
-4 -18 63 7 87 14 147 44 78 39 159 116 256 246 41 55 106 128 144 161 37 34
84 75 103 92 82 72 211 107 293 78 17 -6 92 -47 167 -91 74 -45 147 -87 162
-95 15 -7 91 -56 170 -107 121 -79 226 -145 300 -189 183 -109 228 -130 228
-106 0 8 -80 80 -138 125 -15 11 -29 23 -32 26 -4 4 -82 67 -115 92 -59 46
-326 234 -380 267 -78 49 -222 157 -273 205 -70 65 -89 143 -53 214 24 46 70
90 188 179 346 262 455 402 455 583 0 83 -2 95 -28 160 -27 70 -35 70 -13 -1
51 -159 -12 -317 -176 -445 -73 -57 -237 -165 -242 -161 -2 3 7 41 22 84 32
97 67 236 93 373 20 101 25 134 37 245 3 28 10 82 14 120 5 39 9 108 11 155 1
47 3 115 4 152 1 38 0 68 -4 68 -3 0 -11 -46 -18 -103 -14 -120 -13 -112 -53
-292 -33 -151 -63 -258 -111 -400 -32 -93 -95 -245 -105 -255 -3 -3 -2 31 2
75 4 44 9 139 10 210 2 72 6 164 10 205 14 158 14 173 9 181 -8 13 -34 -2 -35
-20 -1 -24 -18 18 -17 44 0 17 1 17 5 3 2 -10 8 -18 13 -18 5 0 7 6 4 14 -4
11 0 13 17 9 l22 -6 -6 149 c-7 170 -27 264 -84 387 -41 88 -53 97 -21 16 48
-124 59 -287 33 -493 -9 -72 -19 -138 -22 -146 -3 -8 -7 -19 -8 -25 -2 -5 -8
-30 -15 -55 l-13 -45 -9 35 c-6 19 -13 40 -18 45 -4 6 -8 26 -8 45 -2 36 -50
241 -121 512 -22 87 -41 160 -41 163 0 3 -4 5 -9 5 -4 0 -5 -21 -1 -47 4 -27
10 -77 13 -113 l6 -65 -39 119 c-94 283 -222 485 -419 659 -63 55 -64 45 -3
-20 142 -149 235 -332 303 -593 23 -85 32 -243 16 -283 -11 -30 -74 100 -81
170 -4 32 -9 65 -11 73 -2 8 -6 33 -10 54 -8 60 -60 207 -101 288 -39 78 -128
216 -165 258 -72 80 -109 119 -109 114 0 -3 17 -31 39 -62 97 -144 173 -346
197 -524 12 -95 13 -134 1 -117 -8 12 -80 100 -90 111 -7 7 -44 49 -82 93 -39
43 -101 111 -138 150 -81 83 -92 102 -106 180 -10 58 -13 85 -29 276 -14 160
-6 385 23 624 7 64 -32 -85 -54 -205 -23 -121 -27 -151 -36 -240 -4 -36 -9
-76 -11 -90 -4 -20 -14 -335 -14 -424 0 -28 -42 30 -80 109 -35 74 -49 145
-56 301 -6 110 -3 148 21 275 3 14 32 140 65 280 33 140 63 265 66 279 3 14
14 62 25 108 25 100 18 119 -10 30 -11 -34 -45 -135 -76 -223 -119 -337 -224
-664 -226 -701 0 -15 -2 -14 -10 5 -5 13 -12 83 -16 155 -5 121 -4 140 22 246
74 313 215 720 346 999 47 100 61 139 28 83z m-296 -4239 c-13 -2 -35 -2 -50
0 -16 2 -5 4 22 4 28 0 40 -2 28 -4z"/>
<path d="M1270 3120 c0 -3 13 -37 30 -75 16 -39 30 -78 30 -87 0 -16 39 -52
48 -44 2 2 -13 36 -32 75 -37 73 -76 140 -76 131z"/>
<path d="M1201 884 c0 -11 3 -14 6 -6 3 7 2 16 -1 19 -3 4 -6 -2 -5 -13z"/>
</g>
</svg>
